<svg xmlns="http://www.w3.org/2000/svg" width="512" height="512" viewBox="0 0 512 512">
<!-- Launcher icon for SailfishOS in the arched shape of the stock Lock icon
     (Sailfish Apps icon library, CC BY 3.0): half circle on top, square
     bottom. A sun and a banner with scrolling text marks, centred. -->
<defs>
<linearGradient id="bg" gradientUnits="userSpaceOnUse" x1="0" y1="86" x2="86" y2="0"><stop offset="0" stop-color="#2a1500"/><stop offset="1" stop-color="#8a4c00"/></linearGradient>
</defs>
<g transform="scale(5.95349)"><path d="M85.7,42.981C85.7,19.409,66.583,0.3,43,0.3S0.3,19.409,0.3,42.981c0,0.635,0.021,1.267,0.049,1.897C0.316,45.031,0.3,45.19,0.3,45.352v38.925c0,0.786,0.637,1.423,1.423,1.423h82.553c0.786,0,1.423-0.637,1.423-1.423V45.352c0-0.162-0.016-0.321-0.049-0.474C85.679,44.248,85.7,43.616,85.7,42.981z" fill="url(#bg)"/></g>
<g transform="translate(0 41)">
<circle cx="256" cy="200" r="110" fill="#FFB830"/>
<g stroke="#FFB830" stroke-width="14" stroke-linecap="round"><line x1="406.0" y1="200.0" x2="446.0" y2="200.0"/><line x1="385.9" y1="275.0" x2="420.5" y2="295.0"/><line x1="331.0" y1="329.9" x2="351.0" y2="364.5"/><line x1="256.0" y1="350.0" x2="256.0" y2="390.0"/><line x1="181.0" y1="329.9" x2="161.0" y2="364.5"/><line x1="126.1" y1="275.0" x2="91.5" y2="295.0"/><line x1="106.0" y1="200.0" x2="66.0" y2="200.0"/><line x1="126.1" y1="125.0" x2="91.5" y2="105.0"/><line x1="181.0" y1="70.1" x2="161.0" y2="35.5"/><line x1="256.0" y1="50.0" x2="256.0" y2="10.0"/><line x1="331.0" y1="70.1" x2="351.0" y2="35.5"/><line x1="385.9" y1="125.0" x2="420.5" y2="105.0"/></g>
<rect x="56" y="300" width="400" height="120" rx="22" fill="#000000" stroke="#ffffff" stroke-width="10"/>
<g fill="#ffffff"><rect x="96" y="340" width="70" height="40" rx="8"/><rect x="186" y="340" width="110" height="40" rx="8"/><rect x="316" y="340" width="100" height="40" rx="8" opacity="0.5"/></g>
</g>
</svg>
